<svg xmlns="http://www.w3.org/2000/svg" width="100" height="100" viewBox="0 0 100 100">
  <rect x="15" y="20" width="70" height="60" rx="5" fill="#e0f0ff" stroke="#2196f3" stroke-width="2"/>
  <rect x="25" y="30" width="50" height="40" rx="3" fill="#f5f5f5" stroke="#333" stroke-width="1.5"/>
  <rect x="30" y="35" width="15" height="30" rx="2" fill="#e0e0e0" stroke="#666" stroke-width="1"/>
  <rect x="55" y="35" width="15" height="30" rx="2" fill="#e0e0e0" stroke="#666" stroke-width="1"/>
  <path d="M20 35 Q10 30 10 20 Q10 10 20 10" fill="none" stroke="#2196f3" stroke-width="2"/>
  <path d="M80 35 Q90 30 90 20 Q90 10 80 10" fill="none" stroke="#2196f3" stroke-width="2"/>
  <path d="M20 65 Q10 70 10 80 Q10 90 20 90" fill="none" stroke="#2196f3" stroke-width="2"/>
  <path d="M80 65 Q90 70 90 80 Q90 90 80 90" fill="none" stroke="#2196f3" stroke-width="2"/>
  <circle cx="20" cy="10" r="3" fill="#2196f3"/>
  <circle cx="80" cy="10" r="3" fill="#2196f3"/>
  <circle cx="20" cy="90" r="3" fill="#2196f3"/>
  <circle cx="80" cy="90" r="3" fill="#2196f3"/>
  <text x="50" y="77" font-size="8" text-anchor="middle" fill="#2196f3" font-weight="bold">LIQUID</text>
</svg>
